<svg id="Capa_1" enable-background="new 0 0 511.99 511.99" height="512" viewBox="0 0 511.99 511.99" width="512" xmlns="http://www.w3.org/2000/svg"><g><g><g><path d="m466.731 156.337v257.216l-210.737 16.63-210.737-16.63v-257.216c0-21.83 17.69-39.509 39.509-39.509h342.455c21.82-.001 39.51 17.679 39.51 39.509z" fill="#f9f6f9"/><path d="m466.731 396.593v16.96l-210.737 16.63-210.737-16.63v-16.96z" fill="#dddaec"/><path d="m53.688 421.05-8.428-7.494v-257.215c0-21.83 17.68-39.509 39.499-39.509h19.96c-21.82 0-39.509 17.679-39.509 39.509v257.216z" fill="#dddaec"/><path d="m466.728 413.557h-421.468c-20.856 0-37.763 16.907-37.763 37.763 0 20.856 16.907 37.763 37.763 37.763h421.468c20.856 0 37.763-16.907 37.763-37.763-.001-20.856-16.908-37.763-37.763-37.763z" fill="#f9f6f9"/><path d="m498.454 471.792c-6.72 10.4-18.42 17.29-31.73 17.29h-421.464c-10.43 0-19.87-4.23-26.71-11.06-6.83-6.84-11.06-16.28-11.06-26.699 0-20.86 16.91-37.77 37.769-37.77h12.16c-3.81 5.9-6.03 12.93-6.03 20.47 0 10.43 4.23 19.87 11.06 26.71 6.83 6.83 16.27 11.06 26.7 11.06h409.305z" fill="#dddaec"/><path d="m428.73 174.892v182.11c0 10.24-8.31 18.55-18.55 18.55h-308.37c-10.25 0-18.55-8.31-18.55-18.55v-182.11c0-11.08 8.98-20.06 20.06-20.06h305.35c11.08 0 20.06 8.98 20.06 20.06z" fill="#5e54ac"/><path d="m130.987 375.55h-29.18c-10.25 0-18.55-8.31-18.55-18.55v-182.11c0-11.08 8.98-20.06 20.06-20.06h29.18c-11.08 0-20.06 8.98-20.06 20.06v182.11c0 10.24 8.31 18.55 18.55 18.55z" fill="#524798"/><path d="m300.381 446.81h-88.774c-18.365 0-33.254-14.888-33.254-33.254h155.281c0 18.366-14.888 33.254-33.253 33.254z" fill="#d0cee7"/></g><path d="m350.857 22.915h-189.734c-24.843 0-44.983 20.14-44.983 44.983v135.868c0 24.843 20.14 44.983 44.983 44.983h189.734c24.843 0 44.983-20.14 44.983-44.983v-135.868c0-24.843-20.139-44.983-44.983-44.983z" fill="#ffe07d"/><path d="m189.04 248.748h-27.91c-24.85 0-44.99-20.14-44.99-44.99v-135.86c0-24.85 20.14-44.99 44.99-44.99h27.91c-24.85 0-44.99 20.14-44.99 44.99v135.86c0 24.85 20.14 44.99 44.99 44.99z" fill="#ffd064"/></g><path d="m498.729 419.303c-6.76-6.749-15.272-11.091-24.499-12.624v-250.352c0-25.916-21.089-47-47.01-47h-23.88v-41.437c0-28.938-23.542-52.48-52.479-52.48h-128.281c-4.143 0-7.5 3.358-7.5 7.5s3.357 7.5 7.5 7.5h128.28c9.399 0 17.994 3.486 24.58 9.222l-87.572 92.143-4.415 4.636c-7.223 7.602-16.976 11.789-27.463 11.789s-20.24-4.187-27.469-11.795l-91.981-96.773c6.586-5.736 15.181-9.222 24.58-9.222h31.98c4.143 0 7.5-3.358 7.5-7.5s-3.357-7.5-7.5-7.5h-31.98c-28.938 0-52.479 23.542-52.479 52.48v41.437h-23.87c-25.922 0-47.011 21.084-47.011 47v250.356c-21.398 3.586-37.76 22.227-37.76 44.627 0 12.083 4.707 23.451 13.257 32.013 8.549 8.549 19.914 13.257 32.003 13.257h340.56c4.143 0 7.5-3.358 7.5-7.5s-3.357-7.5-7.5-7.5h-340.56c-8.082 0-15.681-3.148-21.393-8.859-5.718-5.727-8.867-13.331-8.867-21.411 0-16.685 13.574-30.26 30.26-30.26h126.296c3.531 18.901 20.141 33.255 40.051 33.255h88.774c19.909 0 36.519-14.354 40.051-33.255h126.298c8.073 0 15.674 3.149 21.393 8.859 5.718 5.727 8.867 13.327 8.867 21.4 0 16.691-13.574 30.27-30.26 30.27h-50.91c-4.143 0-7.5 3.358-7.5 7.5s3.357 7.5 7.5 7.5h50.91c24.956 0 45.26-20.308 45.26-45.27 0-12.075-4.706-23.438-13.261-32.006zm-198.348 20.003h-88.774c-11.593 0-21.421-7.7-24.641-18.254h138.056c-3.22 10.553-13.048 18.254-24.641 18.254zm-139.261-183.066h189.74c28.938 0 52.479-23.542 52.479-52.48v-41.433h5.33c6.926 0 12.561 5.634 12.561 12.56v182.11c0 6.093-4.957 11.05-11.05 11.05h-308.37c-6.094 0-11.051-4.957-11.051-11.05v-182.11c0-6.926 5.635-12.56 12.561-12.56h5.32v41.433c.001 28.938 23.543 52.48 52.48 52.48zm-33.057-34.84c-2.819-5.261-4.422-11.266-4.422-17.64v-135.87c0-5.793 1.322-11.283 3.679-16.186l81.013 85.243zm260.277-153.51v135.87c0 6.374-1.604 12.379-4.422 17.64l-80.274-84.457 81.017-85.239c2.356 4.902 3.679 10.393 3.679 16.186zm-132.35 95.31c14.141 0 27.316-5.467 37.28-15.397l80.987 85.207c-6.417 5.144-14.551 8.231-23.396 8.231h-189.741c-8.845 0-16.979-3.087-23.396-8.231l80.987-85.207c9.968 9.932 23.141 15.397 37.279 15.397zm-171.219-38.873h23.87v23h-5.32c-15.197 0-27.561 12.363-27.561 27.56v182.11c0 14.364 11.687 26.05 26.051 26.05h308.37c14.364 0 26.05-11.686 26.05-26.05v-182.11c0-15.197-12.363-27.56-27.561-27.56h-5.33v-23h23.881c17.65 0 32.01 14.355 32.01 32v249.723h-406.471v-249.723c0-17.645 14.36-32 32.011-32z"/></g></svg>